<svg xmlns="http://www.w3.org/2000/svg" width="224" height="64" viewBox="0 0 224 64" fill="none"><mask id="path-1-outside-1_287_2494" maskUnits="userSpaceOnUse" x="-1" y="0" width="226" height="64" fill="black"><rect fill="white" x="-1" width="226" height="64"></rect><path d="M16.3546 62.782C9.28721 61.5826 3.74752 56.6294 1.64642 49.6309C1.13272 47.9199 1.11497 47.5268 1.03293 36.0482C0.937979 22.7616 0.943237 22.7102 2.55739 21.1551C3.82627 19.9326 4.80539 19.5118 6.38116 19.5118C8.23684 19.5118 9.92584 20.4527 10.9044 22.0316L11.6052 23.1624L11.8388 46.6942L12.637 48.1746C13.5274 49.8262 14.2632 50.5393 16.0186 51.452C17.0065 51.9656 17.5332 52.0745 19.0806 52.085C20.6669 52.0961 21.1494 51.999 22.2718 51.4447C23.724 50.7275 24.961 49.4935 25.7867 47.9382C26.3196 46.9344 26.3231 46.8679 26.443 35.1822C26.5271 26.9842 26.6459 23.248 26.8361 22.8153C27.2334 21.9118 28.5005 20.5325 29.3356 20.0945C31.8667 18.7668 34.9888 19.6423 36.413 22.0791L37.0684 23.2003L37.302 46.4592L37.914 47.7717C38.663 49.3779 39.8448 50.6015 41.4563 51.439C43.0916 52.2888 45.8449 52.3567 47.5049 51.5881C48.9702 50.9097 50.5916 49.3668 51.2484 48.0259C51.782 46.9365 51.7864 46.8498 51.9024 35.1822C52.0165 23.7087 52.031 23.4134 52.5235 22.4955C54.7323 18.3789 60.5697 18.5491 62.3334 22.7817C62.5837 23.3824 62.6475 25.9634 62.6443 35.3509C62.6396 48.965 62.6253 49.0976 60.7475 52.92C59.6909 55.0707 59.2633 55.6579 57.4111 57.5013C55.047 59.8543 53.431 60.9157 50.7717 61.8621C45.9804 63.5673 41.3929 63.3326 36.8348 61.1492C35.0384 60.2887 34.4874 59.936 32.6716 58.4841L31.844 57.8223L30.559 58.8749C26.6336 62.0904 21.1565 63.597 16.3546 62.782ZM84.6394 62.7007C83.4756 62.2772 82.0411 60.9649 81.5479 59.8727C81.1635 59.0215 81.113 58.2594 81.1084 53.2405L81.1033 47.5701L81.7561 46.3135C82.7195 44.4588 84.1294 43.64 86.3595 43.64C88.5896 43.64 89.9995 44.4588 90.9629 46.3135L91.6157 47.5701V53.1894C91.6157 57.738 91.5465 58.975 91.2529 59.6821C90.2124 62.187 87.1139 63.6013 84.6394 62.7007ZM113.487 62.6773C112.339 62.2659 111.073 61.0618 110.514 59.8507C110.1 58.9526 110.081 57.7207 110.081 32.0106C110.081 6.48807 110.103 5.062 110.506 4.17038C111.305 2.40654 113.374 1.00427 115.183 1.00001C117.111 0.995845 119.512 2.79935 120.064 4.6675C120.266 5.35259 120.349 8.14382 120.349 14.2412C120.349 18.9749 120.404 22.848 120.472 22.848C120.539 22.848 121.347 22.467 122.266 22.0014C125.879 20.1717 130.589 19.4604 134.612 20.1369C141.957 21.372 147.528 25.514 150.74 32.1272C155.409 41.7409 152.12 53.6032 143.167 59.4434C136.638 63.7024 128.139 64.1245 121.536 60.5177C120.136 59.7527 120.022 59.7269 119.808 60.1271C119.333 61.0163 117.611 62.4587 116.693 62.7352C115.48 63.1006 114.625 63.0851 113.487 62.6773ZM133.774 50.6804C139.877 49.0817 142.756 42.5257 139.821 36.9092C137.894 33.2219 134.013 31.2998 129.879 31.9864C126.763 32.5039 124.396 34.2445 123.036 37.0184C121.563 40.0253 121.519 42.5849 122.892 45.5352C124.838 49.717 129.335 51.8433 133.774 50.6804ZM165.12 62.7949C164.065 62.4553 162.912 61.5732 162.22 60.5757L161.581 59.6561L161.458 5.15303L161.949 4.13371C163.868 0.147537 169.269 0.0336931 171.357 3.93543L171.86 4.87519V31.8931C171.86 57.4189 171.837 58.9578 171.44 59.7585C170.929 60.791 169.79 61.9928 168.869 62.4717C168.027 62.9097 166.015 63.0831 165.12 62.7949ZM197.44 62.3258C194.758 61.7469 193.432 61.2698 191.409 60.1548C179.184 53.4193 176.412 36.8887 185.805 26.7307C189.38 22.8652 193.158 20.831 198.463 19.9165C199.604 19.7198 201.031 19.5588 201.634 19.5588C203.326 19.5588 206.943 20.2504 208.912 20.9506C217.057 23.8464 222.911 31.9096 222.996 40.3509C223.018 42.5242 222.971 42.7843 222.364 43.8215C221.605 45.1207 220.422 45.9832 218.932 46.3245C218.284 46.4728 212.921 46.5674 204.965 46.571L192.05 46.5766L192.324 47.0906C192.792 47.9705 194.632 49.8142 195.769 50.5426C198.148 52.0669 199.07 52.2145 206.251 52.2208C213.176 52.2264 214.342 52.3617 215.717 53.3146C217.814 54.7682 218.419 58.3368 216.934 60.4918C216.484 61.1436 215.798 61.7215 214.975 62.1412L213.708 62.7873L206.567 62.7708C200.58 62.7569 199.104 62.6852 197.44 62.3258ZM211.222 35.6256C211.222 34.9546 207.944 31.9199 206.473 31.2287C203.576 29.8678 199.669 29.8598 196.834 31.209C194.958 32.1015 192.067 34.9315 192.067 35.8754C192.067 35.9465 196.377 36.0046 201.645 36.0046C210.301 36.0046 211.222 35.968 211.222 35.6256Z"></path><path d="M84.8067 37.2024C84.4961 36.9568 83.0434 35.0273 81.5784 32.9148C80.1133 30.8022 78.13 27.9712 77.1709 26.6235C75.1748 23.8186 73.7306 20.8994 73.3621 18.9244C72.8428 16.1415 73.5366 12.5501 75.1178 9.83664C76.9103 6.76044 81.1382 3.98942 84.6193 3.60925C88.8515 3.14703 92.6577 4.46167 95.5976 7.40116C98.6461 10.4492 100.098 14.9237 99.3512 18.9714C99.0505 20.6017 97.4321 23.981 95.9757 26.0196C95.4218 26.7949 93.5752 29.4379 91.8721 31.893C90.1691 34.3482 88.4669 36.6476 88.0895 37.0029C87.2384 37.8043 85.6867 37.8986 84.8067 37.2024ZM88.4619 21.5616C90.3689 20.7806 91.6191 18.8598 91.6105 16.7241C91.6039 15.0666 90.9996 13.7611 89.7354 12.6728C87.6502 10.8778 84.9184 10.8897 82.9191 12.7025C81.687 13.8197 81.1149 15.102 81.1084 16.7613C81.0938 20.5199 84.915 23.0143 88.4619 21.5616Z"></path></mask><path d="M16.3546 62.782C9.28721 61.5826 3.74752 56.6294 1.64642 49.6309C1.13272 47.9199 1.11497 47.5268 1.03293 36.0482C0.937979 22.7616 0.943237 22.7102 2.55739 21.1551C3.82627 19.9326 4.80539 19.5118 6.38116 19.5118C8.23684 19.5118 9.92584 20.4527 10.9044 22.0316L11.6052 23.1624L11.8388 46.6942L12.637 48.1746C13.5274 49.8262 14.2632 50.5393 16.0186 51.452C17.0065 51.9656 17.5332 52.0745 19.0806 52.085C20.6669 52.0961 21.1494 51.999 22.2718 51.4447C23.724 50.7275 24.961 49.4935 25.7867 47.9382C26.3196 46.9344 26.3231 46.8679 26.443 35.1822C26.5271 26.9842 26.6459 23.248 26.8361 22.8153C27.2334 21.9118 28.5005 20.5325 29.3356 20.0945C31.8667 18.7668 34.9888 19.6423 36.413 22.0791L37.0684 23.2003L37.302 46.4592L37.914 47.7717C38.663 49.3779 39.8448 50.6015 41.4563 51.439C43.0916 52.2888 45.8449 52.3567 47.5049 51.5881C48.9702 50.9097 50.5916 49.3668 51.2484 48.0259C51.782 46.9365 51.7864 46.8498 51.9024 35.1822C52.0165 23.7087 52.031 23.4134 52.5235 22.4955C54.7323 18.3789 60.5697 18.5491 62.3334 22.7817C62.5837 23.3824 62.6475 25.9634 62.6443 35.3509C62.6396 48.965 62.6253 49.0976 60.7475 52.92C59.6909 55.0707 59.2633 55.6579 57.4111 57.5013C55.047 59.8543 53.431 60.9157 50.7717 61.8621C45.9804 63.5673 41.3929 63.3326 36.8348 61.1492C35.0384 60.2887 34.4874 59.936 32.6716 58.4841L31.844 57.8223L30.559 58.8749C26.6336 62.0904 21.1565 63.597 16.3546 62.782ZM84.6394 62.7007C83.4756 62.2772 82.0411 60.9649 81.5479 59.8727C81.1635 59.0215 81.113 58.2594 81.1084 53.2405L81.1033 47.5701L81.7561 46.3135C82.7195 44.4588 84.1294 43.64 86.3595 43.64C88.5896 43.64 89.9995 44.4588 90.9629 46.3135L91.6157 47.5701V53.1894C91.6157 57.738 91.5465 58.975 91.2529 59.6821C90.2124 62.187 87.1139 63.6013 84.6394 62.7007ZM113.487 62.6773C112.339 62.2659 111.073 61.0618 110.514 59.8507C110.1 58.9526 110.081 57.7207 110.081 32.0106C110.081 6.48807 110.103 5.062 110.506 4.17038C111.305 2.40654 113.374 1.00427 115.183 1.00001C117.111 0.995845 119.512 2.79935 120.064 4.6675C120.266 5.35259 120.349 8.14382 120.349 14.2412C120.349 18.9749 120.404 22.848 120.472 22.848C120.539 22.848 121.347 22.467 122.266 22.0014C125.879 20.1717 130.589 19.4604 134.612 20.1369C141.957 21.372 147.528 25.514 150.74 32.1272C155.409 41.7409 152.12 53.6032 143.167 59.4434C136.638 63.7024 128.139 64.1245 121.536 60.5177C120.136 59.7527 120.022 59.7269 119.808 60.1271C119.333 61.0163 117.611 62.4587 116.693 62.7352C115.48 63.1006 114.625 63.0851 113.487 62.6773ZM133.774 50.6804C139.877 49.0817 142.756 42.5257 139.821 36.9092C137.894 33.2219 134.013 31.2998 129.879 31.9864C126.763 32.5039 124.396 34.2445 123.036 37.0184C121.563 40.0253 121.519 42.5849 122.892 45.5352C124.838 49.717 129.335 51.8433 133.774 50.6804ZM165.12 62.7949C164.065 62.4553 162.912 61.5732 162.22 60.5757L161.581 59.6561L161.458 5.15303L161.949 4.13371C163.868 0.147537 169.269 0.0336931 171.357 3.93543L171.86 4.87519V31.8931C171.86 57.4189 171.837 58.9578 171.44 59.7585C170.929 60.791 169.79 61.9928 168.869 62.4717C168.027 62.9097 166.015 63.0831 165.12 62.7949ZM197.44 62.3258C194.758 61.7469 193.432 61.2698 191.409 60.1548C179.184 53.4193 176.412 36.8887 185.805 26.7307C189.38 22.8652 193.158 20.831 198.463 19.9165C199.604 19.7198 201.031 19.5588 201.634 19.5588C203.326 19.5588 206.943 20.2504 208.912 20.9506C217.057 23.8464 222.911 31.9096 222.996 40.3509C223.018 42.5242 222.971 42.7843 222.364 43.8215C221.605 45.1207 220.422 45.9832 218.932 46.3245C218.284 46.4728 212.921 46.5674 204.965 46.571L192.05 46.5766L192.324 47.0906C192.792 47.9705 194.632 49.8142 195.769 50.5426C198.148 52.0669 199.07 52.2145 206.251 52.2208C213.176 52.2264 214.342 52.3617 215.717 53.3146C217.814 54.7682 218.419 58.3368 216.934 60.4918C216.484 61.1436 215.798 61.7215 214.975 62.1412L213.708 62.7873L206.567 62.7708C200.58 62.7569 199.104 62.6852 197.44 62.3258ZM211.222 35.6256C211.222 34.9546 207.944 31.9199 206.473 31.2287C203.576 29.8678 199.669 29.8598 196.834 31.209C194.958 32.1015 192.067 34.9315 192.067 35.8754C192.067 35.9465 196.377 36.0046 201.645 36.0046C210.301 36.0046 211.222 35.968 211.222 35.6256Z" fill="black"></path><path d="M84.8067 37.2024C84.4961 36.9568 83.0434 35.0273 81.5784 32.9148C80.1133 30.8022 78.13 27.9712 77.1709 26.6235C75.1748 23.8186 73.7306 20.8994 73.3621 18.9244C72.8428 16.1415 73.5366 12.5501 75.1178 9.83664C76.9103 6.76044 81.1382 3.98942 84.6193 3.60925C88.8515 3.14703 92.6577 4.46167 95.5976 7.40116C98.6461 10.4492 100.098 14.9237 99.3512 18.9714C99.0505 20.6017 97.4321 23.981 95.9757 26.0196C95.4218 26.7949 93.5752 29.4379 91.8721 31.893C90.1691 34.3482 88.4669 36.6476 88.0895 37.0029C87.2384 37.8043 85.6867 37.8986 84.8067 37.2024ZM88.4619 21.5616C90.3689 20.7806 91.6191 18.8598 91.6105 16.7241C91.6039 15.0666 90.9996 13.7611 89.7354 12.6728C87.6502 10.8778 84.9184 10.8897 82.9191 12.7025C81.687 13.8197 81.1149 15.102 81.1084 16.7613C81.0938 20.5199 84.915 23.0143 88.4619 21.5616Z" fill="#EF4023"></path><path d="M16.3546 62.782C9.28721 61.5826 3.74752 56.6294 1.64642 49.6309C1.13272 47.9199 1.11497 47.5268 1.03293 36.0482C0.937979 22.7616 0.943237 22.7102 2.55739 21.1551C3.82627 19.9326 4.80539 19.5118 6.38116 19.5118C8.23684 19.5118 9.92584 20.4527 10.9044 22.0316L11.6052 23.1624L11.8388 46.6942L12.637 48.1746C13.5274 49.8262 14.2632 50.5393 16.0186 51.452C17.0065 51.9656 17.5332 52.0745 19.0806 52.085C20.6669 52.0961 21.1494 51.999 22.2718 51.4447C23.724 50.7275 24.961 49.4935 25.7867 47.9382C26.3196 46.9344 26.3231 46.8679 26.443 35.1822C26.5271 26.9842 26.6459 23.248 26.8361 22.8153C27.2334 21.9118 28.5005 20.5325 29.3356 20.0945C31.8667 18.7668 34.9888 19.6423 36.413 22.0791L37.0684 23.2003L37.302 46.4592L37.914 47.7717C38.663 49.3779 39.8448 50.6015 41.4563 51.439C43.0916 52.2888 45.8449 52.3567 47.5049 51.5881C48.9702 50.9097 50.5916 49.3668 51.2484 48.0259C51.782 46.9365 51.7864 46.8498 51.9024 35.1822C52.0165 23.7087 52.031 23.4134 52.5235 22.4955C54.7323 18.3789 60.5697 18.5491 62.3334 22.7817C62.5837 23.3824 62.6475 25.9634 62.6443 35.3509C62.6396 48.965 62.6253 49.0976 60.7475 52.92C59.6909 55.0707 59.2633 55.6579 57.4111 57.5013C55.047 59.8543 53.431 60.9157 50.7717 61.8621C45.9804 63.5673 41.3929 63.3326 36.8348 61.1492C35.0384 60.2887 34.4874 59.936 32.6716 58.4841L31.844 57.8223L30.559 58.8749C26.6336 62.0904 21.1565 63.597 16.3546 62.782ZM84.6394 62.7007C83.4756 62.2772 82.0411 60.9649 81.5479 59.8727C81.1635 59.0215 81.113 58.2594 81.1084 53.2405L81.1033 47.5701L81.7561 46.3135C82.7195 44.4588 84.1294 43.64 86.3595 43.64C88.5896 43.64 89.9995 44.4588 90.9629 46.3135L91.6157 47.5701V53.1894C91.6157 57.738 91.5465 58.975 91.2529 59.6821C90.2124 62.187 87.1139 63.6013 84.6394 62.7007ZM113.487 62.6773C112.339 62.2659 111.073 61.0618 110.514 59.8507C110.1 58.9526 110.081 57.7207 110.081 32.0106C110.081 6.48807 110.103 5.062 110.506 4.17038C111.305 2.40654 113.374 1.00427 115.183 1.00001C117.111 0.995845 119.512 2.79935 120.064 4.6675C120.266 5.35259 120.349 8.14382 120.349 14.2412C120.349 18.9749 120.404 22.848 120.472 22.848C120.539 22.848 121.347 22.467 122.266 22.0014C125.879 20.1717 130.589 19.4604 134.612 20.1369C141.957 21.372 147.528 25.514 150.74 32.1272C155.409 41.7409 152.12 53.6032 143.167 59.4434C136.638 63.7024 128.139 64.1245 121.536 60.5177C120.136 59.7527 120.022 59.7269 119.808 60.1271C119.333 61.0163 117.611 62.4587 116.693 62.7352C115.48 63.1006 114.625 63.0851 113.487 62.6773ZM133.774 50.6804C139.877 49.0817 142.756 42.5257 139.821 36.9092C137.894 33.2219 134.013 31.2998 129.879 31.9864C126.763 32.5039 124.396 34.2445 123.036 37.0184C121.563 40.0253 121.519 42.5849 122.892 45.5352C124.838 49.717 129.335 51.8433 133.774 50.6804ZM165.12 62.7949C164.065 62.4553 162.912 61.5732 162.22 60.5757L161.581 59.6561L161.458 5.15303L161.949 4.13371C163.868 0.147537 169.269 0.0336931 171.357 3.93543L171.86 4.87519V31.8931C171.86 57.4189 171.837 58.9578 171.44 59.7585C170.929 60.791 169.79 61.9928 168.869 62.4717C168.027 62.9097 166.015 63.0831 165.12 62.7949ZM197.44 62.3258C194.758 61.7469 193.432 61.2698 191.409 60.1548C179.184 53.4193 176.412 36.8887 185.805 26.7307C189.38 22.8652 193.158 20.831 198.463 19.9165C199.604 19.7198 201.031 19.5588 201.634 19.5588C203.326 19.5588 206.943 20.2504 208.912 20.9506C217.057 23.8464 222.911 31.9096 222.996 40.3509C223.018 42.5242 222.971 42.7843 222.364 43.8215C221.605 45.1207 220.422 45.9832 218.932 46.3245C218.284 46.4728 212.921 46.5674 204.965 46.571L192.05 46.5766L192.324 47.0906C192.792 47.9705 194.632 49.8142 195.769 50.5426C198.148 52.0669 199.07 52.2145 206.251 52.2208C213.176 52.2264 214.342 52.3617 215.717 53.3146C217.814 54.7682 218.419 58.3368 216.934 60.4918C216.484 61.1436 215.798 61.7215 214.975 62.1412L213.708 62.7873L206.567 62.7708C200.58 62.7569 199.104 62.6852 197.44 62.3258ZM211.222 35.6256C211.222 34.9546 207.944 31.9199 206.473 31.2287C203.576 29.8678 199.669 29.8598 196.834 31.209C194.958 32.1015 192.067 34.9315 192.067 35.8754C192.067 35.9465 196.377 36.0046 201.645 36.0046C210.301 36.0046 211.222 35.968 211.222 35.6256Z" stroke="#F6F6F6" stroke-width="2" mask="url(#path-1-outside-1_287_2494)"></path><path d="M84.8067 37.2024C84.4961 36.9568 83.0434 35.0273 81.5784 32.9148C80.1133 30.8022 78.13 27.9712 77.1709 26.6235C75.1748 23.8186 73.7306 20.8994 73.3621 18.9244C72.8428 16.1415 73.5366 12.5501 75.1178 9.83664C76.9103 6.76044 81.1382 3.98942 84.6193 3.60925C88.8515 3.14703 92.6577 4.46167 95.5976 7.40116C98.6461 10.4492 100.098 14.9237 99.3512 18.9714C99.0505 20.6017 97.4321 23.981 95.9757 26.0196C95.4218 26.7949 93.5752 29.4379 91.8721 31.893C90.1691 34.3482 88.4669 36.6476 88.0895 37.0029C87.2384 37.8043 85.6867 37.8986 84.8067 37.2024ZM88.4619 21.5616C90.3689 20.7806 91.6191 18.8598 91.6105 16.7241C91.6039 15.0666 90.9996 13.7611 89.7354 12.6728C87.6502 10.8778 84.9184 10.8897 82.9191 12.7025C81.687 13.8197 81.1149 15.102 81.1084 16.7613C81.0938 20.5199 84.915 23.0143 88.4619 21.5616Z" stroke="#F6F6F6" stroke-width="2" mask="url(#path-1-outside-1_287_2494)"></path></svg>