<?xml version="1.0" encoding="utf-8"?>
<!-- Generator: Adobe Illustrator 19.2.1, SVG Export Plug-In . SVG Version: 6.00 Build 0)  -->
<svg version="1.1" id="Capa_1" xmlns="http://www.w3.org/2000/svg" xmlns:xlink="http://www.w3.org/1999/xlink" x="0px" y="0px"
	 viewBox="0 0 301.9 66.7" style="enable-background:new 0 0 301.9 66.7;" xml:space="preserve">
<metadata><?xpacket begin="﻿" id="W5M0MpCehiHzreSzNTczkc9d"?>
<x:xmpmeta xmlns:x="adobe:ns:meta/" x:xmptk="Adobe XMP Core 5.6-c111 79.158366, 2015/09/25-01:12:00        ">
   <rdf:RDF xmlns:rdf="http://www.w3.org/1999/02/22-rdf-syntax-ns#">
      <rdf:Description rdf:about=""/>
   </rdf:RDF>
</x:xmpmeta>
                                                                                                    
                                                                                                    
                                                                                                    
                                                                                                    
                                                                                                    
                                                                                                    
                                                                                                    
                                                                                                    
                                                                                                    
                                                                                                    
                                                                                                    
                                                                                                    
                                                                                                    
                                                                                                    
                                                                                                    
                                                                                                    
                                                                                                    
                                                                                                    
                                                                                                    
                                                                                                    
                           
<?xpacket end="w"?></metadata>
<style type="text/css">
	.st0{fill-rule:evenodd;clip-rule:evenodd;fill:#FFFFFF;}
</style>
<g>
	<path class="st0" d="M144.2,33c1.3,0.9,2.2,2.1,2.7,3.5c1.2,3.6-1.4,7.7-5.2,8.1c-0.3,0-0.7,0.1-1,0.1c-4.1,0-8.2,0-12.2,0H128
		V22.3c0.1,0,0.1,0,0.2,0c3.8,0,7.7,0,11.5,0c3,0,5.7,2.6,6,5.6c0.2,1.8-0.3,3.4-1.4,4.8C144.3,32.8,144.3,32.9,144.2,33z
		 M131.2,35.1v6.5h0.5c2.9,0,5.8,0,8.7,0c0.2,0,0.4,0,0.6,0c2-0.2,3.4-2.2,2.8-4.1c-0.5-1.5-1.7-2.3-3.3-2.3c-3,0-5.9,0-8.9,0
		C131.5,35.1,131.3,35.1,131.2,35.1z M131.2,31.9c2.8,0,5.6,0.1,8.3,0c2.1-0.1,3.3-1.8,3.1-3.7c-0.2-1.6-1.6-2.8-3.4-2.8
		c-2.5,0-5,0-7.5,0h-0.4V31.9z"/>
	<path class="st0" d="M178,22.3c1,0,2,0,3,0c0.1,0,0.3,0.2,0.4,0.3c2.6,3.5,5.1,6.9,7.7,10.4c1.5,2,2.9,4,4.4,6
		c0.1,0.1,0.1,0.2,0.3,0.4v-8.6v-8.5h3.1v22.5c-0.7,0-1.4-0.1-2.1,0c-0.8,0.1-1.2-0.2-1.6-0.8c-3.9-5.4-7.9-10.7-11.8-16
		c0-0.1-0.1-0.1-0.2-0.2v17H178V22.3z"/>
	<path class="st0" d="M106.4,36.7v8h-3.2V22.3c0.1,0,0.1,0,0.2,0c3.6,0,7.2,0,10.8,0c3.2,0.1,6.2,2.7,6.7,5.8
		c0.7,3.8-1.4,7.1-5.1,8.3c-0.1,0-0.2,0.1-0.3,0.1c1.7,2.7,3.3,5.5,5,8.3c-0.9,0-1.8-0.1-2.7,0c-0.8,0.1-1.2-0.2-1.6-0.9
		c-1.3-2.3-2.8-4.6-4.2-6.9c-0.1-0.1-0.3-0.3-0.4-0.3C110,36.7,108.3,36.7,106.4,36.7z M106.5,33.5c2.5,0,5,0,7.5,0
		c0.8,0,1.6-0.2,2.2-0.7c1.5-1,2.1-2.7,1.6-4.4c-0.5-1.7-1.9-2.9-3.7-2.9c-2.5-0.1-5,0-7.5,0c0,0-0.1,0-0.1,0V33.5z"/>
	<path class="st0" d="M172.3,44.7c-1.1,0-2.1,0-3.2,0c-0.1,0-0.3-0.2-0.3-0.3c-0.7-1.7-1.4-3.4-2-5.1c-0.2-0.4-0.4-0.5-0.8-0.5
		c-2.9,0-5.9,0-8.8,0c-0.3,0-0.4,0.1-0.5,0.4c-0.7,1.9-1.4,3.7-2.2,5.6h-3.4c0.3-0.7,0.6-1.4,0.8-2.2c2.6-6.7,5.3-13.3,7.9-20
		c0.1-0.3,0.2-0.4,0.5-0.4c1,0,1.9,0,2.9,0c0.2,0,0.3,0.1,0.4,0.3c2.8,7,5.6,14.1,8.3,21.1C172.1,44,172.2,44.3,172.3,44.7z
		 M165.3,35.6c-1.2-3.1-2.4-6.1-3.6-9.2c-1.2,3.1-2.4,6.2-3.7,9.2H165.3z"/>
	<path class="st0" d="M76.3,22.3h3.2v0.6c0,4.3,0,8.5,0,12.8c0,1.9,0.7,3.5,2.1,4.8c3.5,3.2,9.2,1.5,10.4-3.1
		c0.1-0.6,0.2-1.2,0.2-1.8c0-4.2,0-8.5,0-12.7v-0.5h3.2v0.4c0,4.3,0,8.6,0,12.9c0,4-1.9,7-5.6,8.7c-4.5,2.2-10.2,0.2-12.4-4.3
		c-0.7-1.4-1-2.8-1-4.3c0-4.4,0-8.7,0-13.1C76.3,22.5,76.3,22.4,76.3,22.3"/>
	<path class="st0" d="M296.4,33.7c0,6.5-5.4,11.8-11.9,11.8c-6.5,0-11.8-5.2-11.8-11.7c0-6.5,5.3-11.8,11.8-11.8
		C291.1,22,296.4,27.3,296.4,33.7 M293.8,33.8c0-4.9-3.8-8.9-8.7-9.2c-5.4-0.3-9.7,3.9-9.9,8.9c-0.1,4.9,3.7,9.4,9.1,9.5
		C289.4,43.1,293.8,39.2,293.8,33.8"/>
	<path class="st0" d="M238.3,38.8h2.5c0.1,0.3,0.1,0.7,0.2,1c0.3,0.9,0.9,1.6,1.7,2.1c2.5,1.6,7,1.5,9.4-0.3c1.4-1,1.9-2.6,1.3-4.1
		c-0.3-0.7-1-1.2-1.7-1.6c-1.3-0.7-2.7-0.9-4.1-1.3c-1.5-0.4-3-0.7-4.5-1.2c-1.3-0.4-2.5-1.1-3.3-2.2c-1.4-1.9-1.1-4.9,0.5-6.7
		c1.4-1.5,3.1-2.2,5-2.4c1.9-0.3,3.8-0.2,5.7,0.5c2.1,0.8,3.7,2,4.3,4.2c0.1,0.4,0.2,0.9,0.3,1.4h-2.6c-0.3-2.2-1.8-3-3.7-3.5
		c-2-0.5-4-0.4-5.9,0.5c-0.5,0.2-0.9,0.6-1.3,1c-1,1.1-1.3,3.2,0.7,4.3c1.2,0.7,2.5,0.9,3.9,1.3c1.8,0.5,3.6,0.9,5.4,1.5
		c1.3,0.4,2.4,1.2,3.2,2.3c1.4,2.1,1.1,5.2-0.7,7c-1.4,1.4-3.1,2.1-5,2.5c-2.5,0.4-5,0.3-7.3-0.8c-1.8-0.8-3.2-2.1-3.8-4.1
		C238.4,39.9,238.3,39.4,238.3,38.8"/>
	<polygon class="st0" points="220.9,32.5 220.9,35 208.5,35 208.5,45 205.9,45 205.9,22.5 221.9,22.5 221.9,25 208.5,25 208.5,32.5 
			"/>
	<rect x="229" y="22.5" class="st0" width="2.5" height="22.4"/>
	<rect x="263.2" y="22.5" class="st0" width="2.5" height="22.4"/>
	<path class="st0" d="M55.2,25.3c0,0,0.1-0.1,0.1-0.1c0-0.1,0-0.1-0.1-0.2L35.6,14.8L14.7,25.5c0,0,0,0.1-0.1,0.1
		c0,0.1,0.1,0.1,0.2,0.2l2.6,0l0,15.8c2-0.1,1.9,0.9,3,1.6l0-18l15.3-7.6l13.8,7.4l0,16.2c0.2,0.1,2.7,0.5,3,0l0-15.9L55.2,25.3z"/>
	<path class="st0" d="M63.7,26.2C60.4,13.3,48.7,4,34.9,4c-13.7,0-25.4,9.8-28.6,22c1-0.3,2.1-0.4,3.1-0.3
		C13.2,15.3,23.1,6.7,34.9,6.7c11.5,0,21.4,7.8,25.9,19.1C62.1,25.9,62.5,25.8,63.7,26.2"/>
	<path class="st0" d="M64.6,32.2c-0.2-1.7-0.7-2.1-1.4-2.5c-1-0.5-3-0.5-4,1.1l-7.4,9.5c-1-0.4-1.9-0.3-2.7,0.1
		c-0.2,0-11.7,8.7-11.7,8.7c-1.4,0.7-2,2.4-2,2.4c0,0-0.8-1.9-2.3-2.8c0,0-10.8-8.3-11-8.4c-1.1-0.6-2.3-0.5-3.6,0.4l-7.9-9.5
		c-1.5-1.7-1.8-1.8-2.7-1.8h0c-1.3,0-1.9,0.6-2.1,1.1c-0.1,0.9-0.1,1.8-0.1,2.8c0,12.7,8.2,23.5,19.5,27.6c2.1,0.7,4.2,1.2,6.5,1.5
		c0,0,0,0,0.1,0c0.4,0,0.7,0.1,1.1,0.1c0,0,0,0,0.1,0c0.3,0,0.7,0,1,0.1c0.1,0,0.2,0,0.3,0c0.3,0,0.6,0,1,0c0,0,0,0,0.1,0
		c7.4,0,14.9-3.2,20.3-8c3.6-3.4,6.4-7.7,7.9-12.6c0.8-3.8,1.2-6.4,1.3-8.2c0-0.2,0-0.3,0-0.5C64.6,33,64.6,32.6,64.6,32.2 M33,59.7
		c0,0.3-0.4,0.5-0.8,0.4c-9.6-1.2-18.5-7.3-21.7-15.8c-1.3-3.1-2.2-11-2.2-11c0.1-0.2,7.2,7.8,8.4,9.5c-0.4,1.4,0,3.2,0.6,3.7
		c0.4,1,7.5,6.2,7.5,6.2c1,0.4,1.5,0.2,2-0.6c0.3-0.5,0.4-1,0.2-1.6c-0.1-0.5-0.5-1-1-1.2l-5-4.2c-0.3-0.2-0.4-0.6-0.2-0.9
		c0.2-0.3,0.6-0.4,0.9-0.2l9,6.9c1.5,0.9,2.1,2.5,2.1,2.5C33.1,54,33,59.7,33,59.7 M60.2,42.2C57.6,51.5,48.2,58.7,38.4,60
		c0,0-0.4,0.1-0.4,0.1c-0.4,0-0.4-0.6-0.4-0.6l0-4.6c0-0.6,0.2-2.5,1.9-3.7l9.7-7.3c0.3-0.2,0.7-0.1,0.9,0.2
		c0.2,0.3,0.1,0.7-0.2,0.9l-5,4.2c-0.5,0.3-0.8,0.7-1,1.2c-0.1,0.5-0.1,1.1,0.2,1.6c0.5,0.9,1.1,1,2,0.6c0,0,7.1-5.3,7.5-6.2
		c0.9-0.6,1.3-3.5,0-4.8c1.9-2.7,7.7-9.2,7.7-9.2C61.5,32.6,61.1,39.4,60.2,42.2"/>
</g>
</svg>
