<?xml version="1.0" encoding="utf-8"?>
<!-- Generator: Adobe Illustrator 27.2.0, SVG Export Plug-In . SVG Version: 6.00 Build 0)  -->
<svg version="1.1" id="Capa_1" xmlns="http://www.w3.org/2000/svg" xmlns:xlink="http://www.w3.org/1999/xlink" x="0px" y="0px"
	 viewBox="0 0 700 142.6" style="enable-background:new 0 0 700 142.6;" xml:space="preserve">
<style type="text/css">
	.st0{fill:#FFFFFF;}
</style>
<g>
	<path class="st0" d="M80.3,53.9h14.3V35.5c-5.7-1.9-12.1-2.9-19.7-2.9c-20,0-33,12.7-33,32.7c0,18.1,11.1,32.7,32.4,32.7
		c8.2,0,12.7-0.6,18.7-2.9l1-14c-4.8,2.2-10.2,3.5-15.5,3.5c-14.3,0-20-10.2-20-20.9c0-8.6,4.8-18.7,15.9-18.7
		c1.9,0,3.5,0.3,5.7,0.6L80.3,53.9 M97.8,65.9c0,21.3,13,32,33,32s33-13.3,33-32c0-21.9-11.7-33.3-33-33.3
		C110.2,32.6,97.8,47.8,97.8,65.9z M115.9,66.2c0-11.4,4.4-20,14.6-20c10.2,0,14.6,6.7,14.6,20c0,11.1-4.4,18.1-14.6,18.1
		C120.3,84.3,115.9,77.3,115.9,66.2z M231.7,33.9h-22.8c-4.4-0.6-7.9-1.6-13-1.6c-17.1,0-28.2,9.2-28.2,23.8
		c0,9.2,3.8,16.8,15.5,20.6c-6,1.3-12.1,4.4-12.1,10.8c0,5.7,3.2,8.2,8.6,9.2c-11.1,2.9-13.6,8.9-13.6,14.3
		c0,7.6,6.3,16.8,31.4,16.8c25.7,0,33-14.3,33-23.5c0-10.8-6-15.2-16.8-16.5L193,85.6c-3.2-0.3-4.4-1.3-4.4-3.5
		c0-1.9,1.9-3.5,4.1-3.5h6c14,0,26.3-6.7,26.3-21.6c0-5.4-2.2-9.8-4.1-12.1h10.8V33.9z M183.4,56.1c0-8.2,6.7-11.4,14-11.4
		c7.6,0,13.3,4.4,13.3,10.8c0,5.4-3.5,11.1-14,11.1C188.2,66.9,183.4,62.7,183.4,56.1z M206.6,102.1c5.7,0.6,8.2,1.3,8.2,5.1
		c0,5.7-8.6,8.6-16.2,8.6c-10.2,0-16.8-2.5-16.8-8.2c0-3.5,3.8-6.3,7-7.3L206.6,102.1z M245.3,84.3h-6v12.1h30.1V84.3h-7.3V63.4
		c0-9.5,4.4-16.5,14.6-16.5c6.3,0,10.8,3.2,10.8,11.7v25.7h-6.7v12.1h30.8V84.3h-7.3V57c0-14.9-6.7-24.4-21.6-24.4
		c-10.8,0-18.4,6-21.6,14.3c0.6-4.4,0.6-8.6,0.6-13h-24.4v12.1h8.2L245.3,84.3L245.3,84.3z M429.6,33.9c-3.5-1-7.3-1.6-10.2-1.6
		c-26.6,0-34.9,19.7-34.9,36.8c0,18.7,11.7,28.6,25.4,28.6c10.5,0,17.4-4.8,21.3-13.6c-0.6,3.8-1.3,7.6-1.3,12.1h23.5V84h-7.3V4.4
		h-26.3v12.1h9.5v17.4C429.3,33.9,429.6,33.9,429.6,33.9z M429.3,65.9c0,9.5-5.7,17.4-14.6,17.4c-8.2,0-12.7-8.2-12.7-18.1
		c0-9.8,4.4-19.4,16.5-19.4c3.8,0,8.2,1,10.8,2.2L429.3,65.9L429.3,65.9z M498.8,59.6c-12.1,0-20.6,0.6-27,2.9
		c-6.7,2.5-12.7,8.2-12.7,17.1c0,9.8,6.7,18.1,20.9,18.1c10.5,0,16.2-4.4,20.3-14c-0.3,2.5-0.6,4.4-0.6,8.6V96h20.9V84h-7
		c0.3-8.9,0.6-17.4,0.6-27.6c0-18.1-10.8-24.1-27.3-24.1c-11.1,0-20.9,4.1-25.1,6.3v15.9h14.3v-8.2c2.9-1,7.9-1.9,10.5-1.9
		c7.9,0,11.7,2.5,11.7,12.1L498.8,59.6L498.8,59.6z M498.5,69.7c0,11.4-6.7,15.9-13.3,15.9c-6.7,0-9.2-3.8-9.2-7.6
		c0-5.4,4.4-8.2,18.1-8.2H498.5z M530.5,33.9h-8.6v12.1h8.6v34.9c0,11.1,6.7,16.8,19,16.8c4.1,0,8.2-1,14.6-2.9l0.6-11.7
		c-3.2,1.3-5.7,1.9-8.2,1.9c-7,0-9.2-2.2-9.2-11.1V45.9h16.8V33.9h-16.8v-14l-16.8,1V33.9z M607,59.6c-12.1,0-20.6,0.6-27,2.9
		c-6.7,2.5-12.7,8.2-12.7,17.1c0,9.8,6.7,18.1,20.9,18.1c10.5,0,16.2-4.4,20.3-14c-0.3,2.5-0.6,4.4-0.6,8.6V96h20.9V84h-7
		c0.3-8.9,0.6-17.4,0.6-27.6c0-18.1-10.8-24.1-27.3-24.1c-11.1,0-20.9,4.1-25.1,6.3v15.9h14.3v-8.2c2.9-1,7.9-1.9,10.5-1.9
		c7.9,0,11.7,2.5,11.7,12.1L607,59.6L607,59.6z M606.7,69.7c0,11.4-6.7,15.9-13.3,15.9c-6.7,0-9.2-3.8-9.2-7.6
		c0-5.4,4.4-8.2,18.1-8.2H606.7z M357.9,56.7c0.3,1.3,0.6,2.9,0.6,4.4c0,7.6-6,13.6-13.6,13.6c-7.3,0-13.6-6-13.6-13.6
		c0-7.3,5.7-13,12.7-13.3c0,0,1.6,0,2.2,0c1.9,0,2.5,0.3,3.8-0.3c4.1-1.3,6.3-5.7,4.8-9.8c-1-2.9-3.5-5.1-6.7-5.4
		c-4.4-0.3-9.2,0-13.6,1.6c-16.8,5.7-25.7,24.1-20,40.9c5.7,16.8,24.1,25.7,40.9,19.7c15.2-5.1,24.7-21.6,20.6-37.8
		c-1.6-5.4-4.8-8.6-8.2-10.2l-1-0.3c-0.6-0.3-1.6-0.3-2.2-0.3c-4.4,0-7.9,3.5-7.9,7.9C357.9,55.8,357.9,56.7,357.9,56.7z
		 M371.6,38.3c-4.1,1.6-8.9-1-10.2-5.1c-1.6-4.1,1-8.9,5.1-10.2c4.1-1.6,8.9,0.6,10.2,5.1C377.9,32,375.7,36.7,371.6,38.3z
		 M639.6,126.2c12.1-7.9,18.4-17.1,18.4-29.2c0-7.9-4.4-16.2-13-16.2c-5.7,0-10.2,3.8-10.2,9.8c0,6,6.3,7.9,6.3,14
		c0,4.1-1.6,8.6-9.5,14.6L639.6,126.2z"/>
	<g>
		<g>
			<g>
				<path class="st0" d="M261.5,128.7c-0.6-0.3-1.3-1-1.9-1.3c-0.3,0-0.3-0.3-0.6-0.3c0.6-0.3,1-0.6,1.3-1c1-1,1.3-1.9,1.3-2.9
					c0-1-0.3-1.6-1-2.5c-0.6-0.6-1.3-1.3-2.2-1.9c-1-0.6-1.9-1-3.2-1.3c-1.3-0.3-2.5-0.3-3.8-0.3h-9.5c-0.6,0-1.3,0-1.6,0.3
					c-1,0.3-1,1-1,1.3v17.8c0,0.3,0,1,1,1.3c0.3,0.3,1,0.3,1.6,0.3h9.8c1.6,0,2.9,0,4.4-0.3c1.3-0.3,2.5-0.6,3.5-1.3
					c1-0.6,1.9-1.3,2.5-1.9c0.6-1,1-1.6,1-2.9c0-0.6-0.3-1.3-0.6-1.9C262.4,129.7,261.8,129,261.5,128.7z M244.7,120.8h7
					c0.6,0,1.6,0,2.2,0.3s1.3,0.3,1.6,0.6c0.3,0.3,0.6,0.6,1,1s0.3,0.6,0.3,0.6c0,0.3,0,0.6-0.3,0.6c-0.3,0.3-0.6,0.6-1,1
					c-0.3,0.3-1,0.6-1.6,0.6c-0.6,0.3-1.3,0.3-2.2,0.3h-7V120.8z M257.7,132.8c-0.3,0.3-0.6,0.6-1.3,1c-0.6,0.3-1.3,0.6-2.2,0.6
					c-1,0.3-1.6,0.3-2.5,0.3h-7v-6h7.3c1,0,1.9,0,2.5,0.3c1,0.3,1.6,0.3,2.2,0.6c0.6,0.3,1,0.6,1.3,1c0.3,0.3,0.3,0.6,0.3,1
					C258,132.2,258,132.5,257.7,132.8z"/>
				<path class="st0" d="M293.2,118.6c0-0.6-0.6-1-1-1c-0.6-0.3-1-0.3-1.6-0.3s-1,0.3-1.6,0.6l-9.8,8.2l-10.2-8.2
					c-0.3-0.3-1-0.3-1.6-0.6c-0.6,0-1.3,0-1.6,0.3c-0.6,0.3-1,1-1,1.3c0,0.3,0,1,0.6,1.3l11.1,8.9v7.6c0,0.3,0,1,1,1.3
					c0.3,0.3,1,0.3,1.6,0.3s1.3,0,1.6-0.3c1-0.3,1-1,1-1.3V129l11.1-8.9C293.5,119.5,293.2,118.9,293.2,118.6z"/>
			</g>
			<g>
				<path class="st0" d="M521.3,116c3.2,0,6.3,0,9.2,0c3.5,0,5.7,2.2,5.7,5.7c0,1.3-0.6,2.2-2.2,2.5c-1.3,0.3-2.5-0.3-2.9-1.6
					c-0.3-1.3-1-1.6-1.9-1.6c-5.7,0-11.4,0-17.1,0c-0.6,0-1.6,0.3-2.2,0.6c-0.3,0.3-0.3,1.6,0,2.2c0.3,0.3,1.3,0.6,1.9,0.6
					c6,0,12.1,0,17.8,0c3.2,0,5.7,1.9,6.3,5.1c0.6,3.8-0.6,6.7-3.8,7.9c-1,0.3-1.9,0.6-2.9,0.6c-6.3,0-12.7,0-18.7,0
					c-3.5,0-5.7-2.5-5.7-5.7c0-1.3,0.6-2.2,2.2-2.5c1.3,0,2.5,0.3,2.5,1.9c0,1.3,0.6,1.3,1.9,1.3c5.7,0,11.7,0,17.4,0
					c0.6,0,1.9-0.6,2.2-1.3c0.6-1.6-0.3-2.5-1.9-2.5c-5.7,0-11.7,0-17.4,0c-3.8,0-6.7-2.5-6.7-6.7c0-4.1,2.5-7,6.7-7
					c2.2,0,4.1,0,6.3,0C519.1,116,520,116,521.3,116z"/>
				<path class="st0" d="M401.1,137.9c-3.8,0-7.6,0-11.4,0c-1.9,0-2.9-0.6-2.9-2.9c0-5.4,0-10.8,0-16.2c0-2.2,1-2.9,2.9-2.9
					c7.3,0,14.6,0,21.9,0c3.2,0,6.7,2.2,6.3,6.7c0,2.9,0,6,0,8.9c0,4.1-2.2,6.3-6.3,6.3C408.4,137.9,404.9,137.9,401.1,137.9z
					 M391.9,133.2c0.3,0,0.3,0.3,0.3,0.3c6.7,0,13.3,0,20,0c1.3,0,1.6-0.6,1.6-1.9c0-2.9,0-5.4,0-8.2c0-2.2-0.3-2.2-2.2-2.2
					c-6,0-12.1,0-18.1,0c-0.6,0-1,0-1.6,0C391.9,125.2,391.9,129,391.9,133.2z"/>
				<path class="st0" d="M469.9,123c0,4.1,0,7.9,0,11.7c0,0.6,0,1,0,1.6c-0.3,1.3-1.3,1.9-2.5,1.6c-1.3,0-1.9-1-1.9-2.2
					c0-5.7,0-11.4,0-17.4c0-1.9,1.9-2.9,3.8-1.6c4.4,2.9,8.6,5.4,13,8.2c2.9,1.9,5.7,3.5,8.6,5.4c0.3,0.3,1,0.6,1.6,1
					c0-1,0-1.6,0-1.9c0-3.5,0-6.7,0-10.2c0-1.6,1-2.9,2.2-2.9s2.2,1.3,2.2,2.9c0,5.4,0,10.8,0,16.2c0,2.5-1.9,3.5-4.1,2.2
					c-7.3-4.4-14.3-9.2-21.6-13.6C470.9,123.6,470.6,123.3,469.9,123z"/>
				<path class="st0" d="M442.3,137.9c-4.1,0-8.2,0-12.4,0c-2.2,0-3.2-0.6-3.2-3.2c0-2.9,0-5.7,0-8.2c0-2.2,1-3.2,3.2-3.2
					c7.3,0,14.6,0,21.9,0c1.3,0,2.2,0.3,2.9,1.6c0.6,1.6-0.6,3.2-2.5,3.2c-4.8,0-9.8,0-14.6,0c-1.6,0-3.2,0-4.4,0
					c-1,0-1.3,0.3-1.3,1.3c0,4.8-0.6,3.8,3.8,3.8c6.7,0,13,0,19.7,0c1.3,0,2.5,0.3,2.9,1.6c0.6,1.6-0.6,2.9-2.5,2.9
					C450.6,137.9,446.4,137.9,442.3,137.9z"/>
				<path class="st0" d="M562.6,133.2c1,0,1.6,0,2.2,0c7,0,13.6,0,20.6,0c0.6,0,1,0,1.6,0c1.3,0.3,1.9,1,1.9,2.2
					c0,1.3-0.6,2.2-1.9,2.2c-0.3,0-1,0-1.3,0c-8.2,0-16.5,0-24.7,0c-2.5,0-3.2-0.6-3.2-3.2c0-2.9,0-5.7,0-8.6c0-1.9,1-2.9,2.5-2.9
					c7.3,0,14.9,0,22.2,0c1.6,0,2.9,1,2.9,2.2c0,1.6-1,2.2-2.9,2.2c-6,0-12.4,0-18.4,0c-1.6,0-1.9,0.3-1.9,1.9
					C562.9,130.9,562.6,131.9,562.6,133.2z"/>
				<path class="st0" d="M363,137.9c-2.9,0-5.7,0-8.6,0c-4.4,0-7-2.9-7-7.3c0-3.8,0-7.6,0-11.4c0-1.9,1-3.2,2.5-3.2
					c1.3,0,2.2,1.3,2.2,3.2c0,3.8,0,7.3,0,11.1c0,2.2,0.6,2.9,2.9,2.9c5.4,0,10.8,0,16.2,0c2.5,0,2.9-0.6,2.9-3.2
					c0-3.8,0-7.3,0-11.1c0-1.9,1-2.9,2.2-2.9s2.2,1.3,2.2,2.9c0,4.1,0,8.6,0,12.7c0,3.2-2.9,6-6.3,6h-0.3
					C369,137.9,366.2,137.9,363,137.9L363,137.9z"/>
				<path class="st0" d="M321.8,127.1c2.2,0,4.4,0,7,0c-1-1.3-1.6-2.2-2.5-3.2c-1-1.3-1.9-2.2-2.5-3.5c-1-1.3-0.6-2.5,0.3-3.5
					c1.3-1,2.2-0.6,3.5,0.6c4.1,5.4,8.2,10.8,12.4,16.5c1,1.3,1,2.9,0,3.5c-1.3,1-2.5,0.6-3.8-1c-1-1.3-1.9-2.5-2.9-3.8
					c-0.6-0.6-1.3-1-2.2-1c-3.8,0-7.6,0-11.7,0c-0.6,0-1.6,0.6-2.2,1c-1.3,1.3-1.9,2.5-3.2,3.8c-1.3,1.3-2.5,1.9-3.8,1
					c-1.3-1-1.3-2.2,0-3.8c2.2-2.9,4.4-5.7,6.7-8.9c0.6-1,1.6-1.9,2.9-1.3C321.8,124,322.1,125.2,321.8,127.1z"/>
				<path class="st0" d="M601.6,133.2c1,0,1.6,0,2.2,0c7,0,13.6,0,20.6,0c0.6,0,1,0,1.6,0c1.3,0.3,1.9,1,1.9,2.2
					c0,1.3-0.6,1.9-1.9,2.2c-0.3,0-0.6,0-1,0c-8.6,0-16.8,0-25.4,0c-1.9,0-2.9-1-2.9-2.9c0-5.4,0-10.5,0-15.9c0-1.6,1-2.9,2.2-2.9
					s2.2,1.3,2.2,2.9c0,4.1,0,7.9,0,12.1C601.6,131.9,601.6,132.5,601.6,133.2z"/>
				<path class="st0" d="M442,121.1c-3.8,0-7.9,0-11.7,0c-0.6,0-1.3,0-1.9-0.3c-0.6-0.6-1.6-1.3-1.9-1.9c0-0.6,0.6-1.6,1.3-2.2
					c0.3-0.3,1.3-0.3,1.6-0.3c8.2,0,16.5,0,24.7,0c0.6,0,1,0,1.6,0.3c1,0.3,1.6,1.3,1.6,2.2c0,1.3-1,1.9-1.9,2.2c-0.6,0-1,0-1.6,0
					C450.3,121.1,446.1,121.1,442,121.1z"/>
				<path class="st0" d="M573.7,121.1c-4.1,0-7.9,0-12.1,0c-0.6,0-1.6,0-1.9-0.3c-0.6-0.3-1.3-1.3-1.6-1.9c0-0.6,0.6-1.6,1-2.2
					c0.3-0.3,1.3-0.3,1.9-0.3c8.2,0,16.5,0,24.7,0c0.3,0,0.6,0,1.3,0c1.3,0.3,1.9,1.3,1.9,2.2c0,1.3-0.6,1.9-1.9,2.2
					c-0.6,0-1,0-1.6,0C581.6,121.1,577.5,121.1,573.7,121.1z"/>
				<path class="st0" d="M549.2,127.1c0,2.5,0,5.4,0,7.9c0,1.9-1,2.9-2.2,2.9s-2.2-1-2.2-2.5c0-5.4,0-10.8,0-16.5
					c0-1.6,1-2.5,2.2-2.5s2.2,1,2.2,2.5C549.2,121.7,549.2,124.6,549.2,127.1z"/>
			</g>
		</g>
	</g>
</g>
</svg>
