<?xml version="1.0" encoding="utf-8"?>
<!-- Generator: Adobe Illustrator 22.1.0, SVG Export Plug-In . SVG Version: 6.00 Build 0)  -->
<svg version="1.1" id="Capa_1" xmlns="http://www.w3.org/2000/svg" xmlns:xlink="http://www.w3.org/1999/xlink" x="0px" y="0px"
	 viewBox="0 0 596 78" style="enable-background:new 0 0 596 78;" xml:space="preserve">
<style type="text/css">
	.st0{fill:#8B8683;}
</style>
<g>
	<g>
		<g>
			<path class="st0" d="M50.6,23.7l-19,38.8L12.4,23.7H9.9L2.5,75.1h7.1l4.4-32.6l16.2,32.6h2.7l16-32.3l4.5,32.3h7.2l-7.4-51.4
				H50.6z M221.3,8.4c1,0,2.6,0.5,4.6,1.6c2.9,1.3,5,1.9,6.2,1.9c3.7,0,6.7-2.2,8.9-6.5l-4.3-3.6c-1.5,2.5-3,3.7-4.2,3.7
				c-0.7,0-2.2-0.6-4.6-1.8c-2.3-1.2-4.4-1.8-6.2-1.8c-0.8,0-1.5,0.1-2.1,0.3c-0.7,0.2-1.3,0.4-1.9,0.8c-0.6,0.4-1.2,0.9-1.8,1.5
				c-0.6,0.6-1.2,1.4-1.8,2.3l-1,1.4l4.5,3.8C218.8,9.6,220,8.4,221.3,8.4z M81.4,75.2h30.2v-7.1h-23V51.1h23V44h-23V31h23.2v-7.1
				H81.4V75.2z M227.8,23.8h-2.7l-24.3,51.4h8l7.6-16.1h19.6l7.7,16.1h7.9L227.8,23.8z M219.9,52l6.6-13.8l6.5,13.8H219.9z
				 M138.8,23.8h-7.2v51.4h26.1v-7.1h-18.9V23.8z M176.1,75.2h7.2V23.8h-7.2V75.2z"/>
		</g>
	</g>
	<g>
		<g>
			<path class="st0" d="M309.8,25.8h4.5v18.1h2V25.8h4.5v-2h-11V25.8z M295.6,23.3c-1.9,0-3.6,0.5-5.2,1.4c-1.6,0.9-2.9,2.2-3.8,3.9
				c-0.9,1.6-1.4,3.4-1.4,5.4c0,2.9,1,5.4,3.1,7.4s4.6,3.1,7.5,3.1c2.9,0,5.4-1,7.5-3.1c2-2,3.1-4.5,3.1-7.5c0-3-1-5.5-3.1-7.5
				C301.2,24.3,298.7,23.3,295.6,23.3z M303.1,38.2c-0.7,1.3-1.8,2.3-3.1,3.1c-1.3,0.8-2.8,1.1-4.3,1.1c-2.3,0-4.3-0.8-6-2.5
				c-1.7-1.6-2.5-3.7-2.5-6c0-1.6,0.4-3.1,1.1-4.4c0.7-1.3,1.8-2.4,3.1-3.1c1.3-0.8,2.7-1.2,4.2-1.2c1.5,0,2.9,0.4,4.3,1.2
				c1.3,0.8,2.4,1.8,3.1,3.1c0.7,1.3,1.1,2.7,1.1,4.3C304.3,35.5,303.9,36.9,303.1,38.2z M278.3,32.2h-10.2v-8.4h-2v20.1h2v-9.7
				h10.2v9.7h2V23.8h-2V32.2z M365,36c-0.6-1-1.8-2.1-3.6-3.4c-1.5-1.1-2.3-1.8-2.6-2c-0.5-0.5-0.8-0.9-1-1.3
				c-0.2-0.4-0.3-0.8-0.3-1.3c0-0.7,0.3-1.3,0.8-1.8c0.5-0.5,1.2-0.7,2-0.7c0.6,0,1.2,0.2,1.7,0.5c0.5,0.3,1.2,1,1.9,2l1.6-1.2
				c-0.9-1.3-1.8-2.1-2.6-2.6c-0.8-0.5-1.7-0.7-2.7-0.7c-0.9,0-1.7,0.2-2.5,0.6c-0.8,0.4-1.3,1-1.8,1.7c-0.4,0.7-0.6,1.5-0.6,2.4
				c0,1.1,0.4,2.1,1.1,3.1c0.4,0.6,1.5,1.5,3.1,2.7c1.7,1.3,2.8,2.3,3.4,3.2c0.5,0.6,0.7,1.3,0.7,2c0,0.6-0.2,1.2-0.5,1.7
				c-0.3,0.5-0.8,0.9-1.4,1.3c-0.6,0.3-1.2,0.5-1.9,0.5c-1.6,0-3-1.1-4.2-3.3l-1.7,1c0.8,1.5,1.8,2.6,2.7,3.3c1,0.7,2.1,1,3.3,1
				c1.6,0,2.9-0.5,4-1.6c1.1-1.1,1.7-2.3,1.7-3.8C366,38,365.7,37,365,36z M343.4,23.8h-2v20.1h9.7V42h-7.7V23.8z M325.1,43.9h11.4
				v-2h-9.4V34h9.4v-2h-9.4v-6.3h9.5v-2h-11.5V43.9z"/>
		</g>
	</g>
	<g>
		<g>
			<path class="st0" d="M336.1,65.2c1-0.4,1.7-1,2.2-1.9c0.5-0.8,0.8-1.8,0.8-2.9c0-1.3-0.4-2.4-1.1-3.3c-0.7-0.9-1.7-1.5-2.9-1.8
				c-0.8-0.2-2.3-0.3-4.5-0.3h-4v20.1h2v-9.3h1.1l7.2,9.3h2.5l-7.2-9.3C333.8,65.9,335.2,65.6,336.1,65.2z M328.5,63.9v-6.8h3.5
				c1.4,0,2.4,0.1,3,0.4c0.6,0.2,1.1,0.6,1.4,1.2c0.4,0.6,0.5,1.2,0.5,1.8c0,0.7-0.2,1.3-0.5,1.9c-0.4,0.6-0.9,1-1.5,1.2
				c-0.6,0.3-1.6,0.4-3,0.4L328.5,63.9z M450.8,70.5l-13.4-15.4H437v20.1h2.1V60l13.3,15.2h0.5V55.1h-2V70.5z M288.1,70.5
				l-13.4-15.4h-0.4v20.1h2.1V60l13.3,15.2h0.4V55.1h-2V70.5z M294.5,57.1h4.5v18.1h2V57.1h4.5v-2h-11V57.1z M266.1,75.2h2V55.1h-2
				V75.2z M358.7,70.5l-13.4-15.4h-0.4v20.1h2.1V60l13.3,15.2h0.4V55.1h-2V70.5z M309.9,75.2h11.4v-2h-9.4v-7.9h9.4v-2h-9.4v-6.3
				h9.5v-2h-11.5V75.2z M466.9,55.1l-9.5,20.1h2.2l3.1-6.6h8.7l3.2,6.6h2.2l-9.4-20.1H466.9z M463.7,66.6l3.4-7.3l3.4,7.3H463.7z
				 M403.1,75.2h2V55.1h-2V75.2z M420.8,54.6c-1.9,0-3.6,0.5-5.2,1.4c-1.6,0.9-2.9,2.2-3.8,3.9c-0.9,1.6-1.4,3.4-1.4,5.4
				c0,2.9,1,5.4,3.1,7.4c2,2,4.6,3.1,7.5,3.1c2.9,0,5.4-1,7.5-3.1c2-2,3.1-4.5,3.1-7.5c0-3-1-5.5-3.1-7.5
				C426.3,55.6,423.8,54.6,420.8,54.6z M428.3,69.5c-0.7,1.3-1.8,2.3-3.1,3.1c-1.3,0.8-2.8,1.1-4.3,1.1c-2.3,0-4.3-0.8-6-2.5
				c-1.7-1.6-2.5-3.7-2.5-6c0-1.6,0.4-3.1,1.1-4.4c0.7-1.3,1.8-2.4,3.1-3.1c1.3-0.8,2.7-1.2,4.2-1.2c1.5,0,2.9,0.4,4.3,1.2
				c1.3,0.8,2.4,1.8,3.1,3.1c0.7,1.3,1.1,2.7,1.1,4.3C429.4,66.7,429,68.2,428.3,69.5z M374.8,55.1l-9.5,20.1h2.2l3.1-6.6h8.6
				l3.2,6.6h2.2l-9.4-20.1H374.8z M371.6,66.6l3.4-7.3l3.4,7.3H371.6z M387.4,57.1h4.5v18.1h2V57.1h4.5v-2h-11V57.1z M483.5,73.3
				V55.1h-2v20.1h9.7v-1.9H483.5z"/>
		</g>
	</g>
</g>
</svg>
